<svg id="mastermark-enterprise" xmlns="http://www.w3.org/2000/svg" xmlns:xlink="http://www.w3.org/1999/xlink" width="360" height="105.815" viewBox="0 0 360 105.815">
  <defs>
    <clipPath id="clip-path">
      <rect id="Rectangle_658" data-name="Rectangle 658" width="360" height="105.814" fill="none"/>
    </clipPath>
    <clipPath id="clip-path-2">
      <path id="Path_1717" data-name="Path 1717" d="M10.442,48.772a38.329,38.329,0,1,0,38.33-38.33,38.33,38.33,0,0,0-38.33,38.33" transform="translate(-10.442 -10.443)" fill="none"/>
    </clipPath>
  </defs>
  <path id="Path_1668" data-name="Path 1668" d="M77.171,7.474h25.955L122.386,68.9,142.7,7.474h23.368l-30.885,84.79h-28.07Z" transform="translate(30.563 2.959)" fill="#ffb300"/>
  <g id="Group_2214" data-name="Group 2214">
    <g id="Group_2213" data-name="Group 2213" clip-path="url(#clip-path)">
      <path id="Path_1669" data-name="Path 1669" d="M194.1,34.633c-1.058-8.571-7.05-11.746-13.742-11.746-14.209,0-18.557,13.037-18.557,28.54,0,5.167.116,26.541,18.314,26.541,12.45,0,13.742-9.043,14.21-12.332h24.419c-.118,26.539-27.128,28.774-38.167,28.774-8.221,0-22.791-1.408-32.175-11.275-9.277-9.865-10.923-23.369-10.923-32.175,0-11.625,2.7-23.25,10.688-32.3,8.689-9.865,19.846-12.45,32.175-12.45,13.742,0,24.193,3.289,30.888,10.335a25.909,25.909,0,0,1,7.045,18.086Z" transform="translate(54.439 2.459)" fill="#ffb300"/>
      <path id="Path_1670" data-name="Path 1670" d="M223.833,7.474V57.856c0,4.58.354,9.277,2.7,12.8a16.981,16.981,0,0,0,14.448,6.919c14.911,0,16.912-12.1,16.912-20.55V7.474h22.889V56.568c0,9.4-1.292,19.612-6.577,25.844-8.223,10.1-23.368,12.094-34.056,12.094C200.112,94.493,200,69.594,200,55.742l.116-48.268Z" transform="translate(79.206 2.959)" fill="#ffb300"/>
      <path id="Path_1671" data-name="Path 1671" d="M105.814,52.907A52.907,52.907,0,1,1,52.907,0a52.907,52.907,0,0,1,52.907,52.907" fill="#ffb300"/>
      <path id="Path_1672" data-name="Path 1672" d="M52.347,90.679a38.243,38.243,0,1,0-.006,0m.006-89.267a50.938,50.938,0,1,0,50.94,50.939A50.937,50.937,0,0,0,52.347,1.412" transform="translate(0.56 0.56)" fill="#1a1818"/>
      <path id="Path_1673" data-name="Path 1673" d="M19.462,66.162a1.832,1.832,0,0,0-.511.425.472.472,0,0,0-.094.407c.061.2.295.391.443.656.085.15.118.23.059.328-.089.138-.191.071-.279.012-.293-.189-.543-.442-.836-.629s-.631-.3-.924-.482c-.075-.047-.2-.122-.114-.262s.269-.025.545-.075a3.405,3.405,0,0,0,1.125-.61l4.6-3.019c.5-.328.611-.279.7-.22.131.082.131.2.082.582l-.856,6.15a1.306,1.306,0,0,0,.2.944c.075.145.171.2.085.344s-.173.082-.295,0c-.389-.246-.733-.562-1.125-.814s-.814-.421-1.209-.665c-.061-.04-.216-.14-.131-.274s.248-.088.407-.032c.3.1.433-.053.557-.251a1.665,1.665,0,0,0,.15-.6l.5-3.443c.055-.375.071-.476.028-.5s-.14,0-.309.122Z" transform="translate(6.8 24.814)" fill="#fff"/>
      <path id="Path_1674" data-name="Path 1674" d="M19.176,61.146a.857.857,0,0,0-.055-1.156.216.216,0,0,1,0-.328c.1-.122.331.065.557.26s.5.529.814.79.675.466.989.728c.15.125.265.225.159.35s-.268.053-.366,0a.779.779,0,0,0-.905.344l-2.963,3.512a.743.743,0,0,0,.046,1.15.2.2,0,0,1,0,.326c-.106.124-.332-.067-.557-.257-.313-.265-.571-.59-.885-.855s-.675-.464-.987-.725c-.112-.092-.23-.2-.122-.317s.35.014.45.055c.383.166.647-.118.865-.375Z" transform="translate(5.884 23.612)" fill="#fff"/>
      <path id="Path_1675" data-name="Path 1675" d="M15.284,61.715c.092-.083.265-.238-.171-.727-.611-.684-1.184-.679-1.95,0a1.333,1.333,0,0,0-.2,1.95c.36.407.545.366.814.118Zm-.2,2.273a.771.771,0,0,0-.114,1.146.217.217,0,0,1-.04.322c-.075.069-.15.082-.314-.1s-.287-.442-.769-.985c-.366-.407-.932-.918-1.233-1.256-.914-1.018-1.671-2.239-.407-3.367a1.384,1.384,0,0,1,1.479-.3c.22.075.464.26.539.189a15.15,15.15,0,0,0,.963-3.065.393.393,0,0,0-.055-.319c-.075-.085-.173-.15-.234-.216a.17.17,0,0,1,.028-.246c.328-.291,1.176.568,1.4.814a1.068,1.068,0,0,1,.128,1.064l-.837,2.347c-.118.344-.2.633.051.916.177.2.262.217.362.128L17.323,59.9c.625-.562.531-.941.268-1.28a.2.2,0,0,1,.039-.323c.1-.088.2-.017.517.336.273.3.484.659.757.967s.611.554.879.861c.1.106.2.225.075.332s-.277.014-.366-.043a.814.814,0,0,0-.981.177Z" transform="translate(4.571 22.07)" fill="#fff"/>
      <path id="Path_1676" data-name="Path 1676" d="M12.163,53.733a.784.784,0,0,0-.291,1.152.2.2,0,0,1-.108.291c-.122.075-.225-.055-.45-.422s-.375-.728-.588-1.078-.48-.665-.694-1.018c-.118-.194-.1-.287-.017-.338.14-.088.273.037.352.1a.79.79,0,0,0,.983-.025l1.275-.779A6.329,6.329,0,0,1,15,53.817a3.359,3.359,0,0,1-1.03,4.884,3.742,3.742,0,0,1-5.23-1.111,6.391,6.391,0,0,1-.719-2.21c-.134-.22-.356.025-.517-.238a.12.12,0,0,1,.039-.15L8.688,54.1c.128-.1.307-.26.375-.3.13-.082.238-.085.291,0s-.088.332-.126.407c-.865,1.583-.625,2.287-.22,2.947.885,1.449,2.3,1.231,3.693.375,1.266-.771,2.71-2.134,1.795-3.626-.474-.775-.989-.989-1.817-.482Z" transform="translate(2.961 20.443)" fill="#fff"/>
      <path id="Path_1677" data-name="Path 1677" d="M11.431,49.741a.853.853,0,0,0,.468-1.056.2.2,0,0,1,.142-.295c.15-.065.265.2.383.479s.2.7.375,1.076.407.718.562,1.1c.075.177.136.316-.014.382s-.265-.075-.334-.157a.779.779,0,0,0-.967-.1L7.819,52.987a.745.745,0,0,0-.47,1.05.2.2,0,0,1-.14.295c-.15.065-.266-.2-.385-.482-.161-.375-.246-.782-.407-1.158s-.407-.718-.559-1.095c-.057-.131-.118-.271.032-.336s.305.169.375.248c.271.322.635.188.947.051Z" transform="translate(2.297 19.16)" fill="#fff"/>
      <path id="Path_1678" data-name="Path 1678" d="M7.253,49.11a2.075,2.075,0,0,0-.279.565c.014.049.051.069.289.011L10.8,48.8a.95.95,0,0,0,.841-.893c.014-.271-.088-.592.1-.639s.259.189.3.366c.088.346.1.714.185,1.061s.252.675.342,1.018c.025.1.051.2-.108.248s-.238-.068-.354-.2a1.109,1.109,0,0,0-1.275-.393L7.094,50.3c-.375.094-.884.38-.97.791-.075.365-.069.511-.23.551s-.173-.02-.191-.088c-.075-.3-.11-.611-.183-.9s-.189-.584-.265-.883c-.055-.218-.043-.291.035-.407L8.3,44.534a1.018,1.018,0,0,0,.181-.407c-.02-.082-.16-.055-.3-.02l-2.25.582c-.651.163-1.247.354-1.231,1.005,0,.273,0,.557-.155.6s-.2-.15-.251-.328c-.088-.348-.094-.714-.183-1.061s-.25-.675-.34-1.018c-.025-.1-.053-.2.108-.246s.238.065.354.2a1.1,1.1,0,0,0,1.275.382l4.774-1.2c.436-.112.566-.1.594.016a1.931,1.931,0,0,1-.342.741Z" transform="translate(1.485 17.012)" fill="#fff"/>
      <path id="Path_1679" data-name="Path 1679" d="M9.358,40.64a.853.853,0,0,0,.767-.865.214.214,0,0,1,.225-.238c.165-.016.2.279.225.572s-.01.73.029,1.138.163.814.2,1.221c.02.193.034.346-.13.362s-.23-.15-.269-.25a.777.777,0,0,0-.891-.385l-4.575.45a.741.741,0,0,0-.773.854.214.214,0,0,1-.225.238c-.163.016-.193-.279-.22-.574-.039-.407,0-.814-.039-1.221s-.163-.814-.2-1.221c-.014-.14-.029-.293.136-.309s.242.252.283.354c.161.385.55.366.883.332Z" transform="translate(1.376 15.657)" fill="#fff"/>
      <path id="Path_1680" data-name="Path 1680" d="M7.169,38.985a1.188,1.188,0,0,0,.283.126c.092,0,.128-.169.14-.425l.049-1.1c.014-.328,0-.45-.043-.454a1.536,1.536,0,0,0-.407.136L5.765,37.9c-.136.065-.2.1-.2.175s.2.15.257.175Zm-3.45-1.325c-.26-.145-.35-.2-.346-.291,0-.043.1-.1.225-.154l5.663-2.309c.394-.167.891-.287,1.018-.675.092-.273.13-.423.293-.407s.159.11.15.279c-.022.488-.125.975-.142,1.425s.039.942.018,1.425c0,.142-.08.2-.14.2-.122,0-.2-.12-.2-.275a.542.542,0,0,0-.539-.46,3.545,3.545,0,0,0-1.307.407c-.136.128-.187.317-.2.814L8.136,39.2c-.02.521,1,.85,1.437.869.15,0,.358-.242.429-.45.094-.28.191-.655.354-.649s.159.12.15.285c-.016.346-.112.69-.126,1.036s.051.7.037,1.046c0,.142-.01.265-.175.257s-.2-.265-.309-.407a.962.962,0,0,0-.382-.354Z" transform="translate(1.337 13.397)" fill="#fff"/>
      <path id="Path_1681" data-name="Path 1681" d="M7.581,25.768c.194.037.407.053.529.088s.217.122.189.22-.305.15-.385.169a2.91,2.91,0,0,0-2.366,1.774c-.387,1.239.029,2.363,2.157,3.032a2.806,2.806,0,0,0,3.625-1.36,3.193,3.193,0,0,0-.279-2.385c-.08-.159-.225-.365-.179-.519.025-.075.082-.091.171-.065a3.584,3.584,0,0,1-3.4,6.046,3.518,3.518,0,0,1-2.6-4.662,8.42,8.42,0,0,1,1.193-1.992c.075-.246-.252-.252-.169-.525a.126.126,0,0,1,.15-.094Z" transform="translate(1.905 10.097)" fill="#fff"/>
      <path id="Path_1682" data-name="Path 1682" d="M13.759,25.107a2.462,2.462,0,0,0-1.425-3.118c-1.221-.665-3.586-1-4.367.437a2.462,2.462,0,0,0,1.425,3.115c1.221.663,3.583,1,4.367-.437M7.742,21.867a3.484,3.484,0,0,1,4.884-1.6,3.968,3.968,0,0,1,1.31,5.48A3.415,3.415,0,0,1,9.153,27.3,4,4,0,0,1,7.747,21.87" transform="translate(2.851 7.852)" fill="#fff"/>
      <path id="Path_1683" data-name="Path 1683" d="M11.46,20.235a1.286,1.286,0,0,0-1.184-.365c-.344.15-.46.238-.584.13s-.1-.139-.037-.2c.2-.234.431-.437.633-.67s.368-.49.57-.722c.13-.15.2-.189.358-.15l4.44,1.2a2.917,2.917,0,0,0,.647.157c.039-.047-.055-.234-.134-.45L14.4,14.676c-.089-.225-.075-.268-.025-.328.2-.234.433-.437.633-.67s.368-.491.571-.725c.041-.046.1-.037.177.043.125.108.047.273-.075.584-.15.358-.177.548.279.944L18.7,16.9c.639.551,1.091.875,1.844.474.2-.11.3-.145.425-.041s0,.265-.145.419c-.3.283-.564.59-.861.873-.238.336-.5.643-.741.979-.132.15-.269.309-.391.2s-.1-.2-.039-.407c.082-.265-.043-.407-.468-.77l-2.467-2.137c-.075-.065-.225-.175-.25-.15s.02.193.136.468l1.832,4.275c.061.145.1.317.022.407s-.2.057-.309.028L12.7,20.194c-.15-.046-.305-.088-.352-.032s-.022.089.126.216l2.035,1.762a1.321,1.321,0,0,0,1.65.293c.15-.083.281-.122.407-.014s0,.236-.055.313c-.236.271-.531.488-.763.759s-.407.594-.643.865c-.065.075-.14.16-.263.055s-.082-.234-.043-.407a1.087,1.087,0,0,0-.431-1.249Z" transform="translate(3.801 5.122)" fill="#fff"/>
      <path id="Path_1684" data-name="Path 1684" d="M16.848,14.09c-.225-.317-.651-.7-1.068-.628-.368.063-.5.12-.6-.012s-.061-.157.012-.2c.248-.181.525-.323.771-.5s.476-.393.727-.571c.167-.12.242-.137.382-.061l4.031,2.214a2.757,2.757,0,0,0,.594.3c.049-.037,0-.242-.025-.472L21.01,9.374c-.032-.238-.01-.279.055-.323.248-.177.525-.323.771-.5s.474-.388.722-.571c.051-.037.1-.012.163.086.1.134-.018.277-.2.551-.23.311-.3.491.049.981l2.106,2.95c.493.688.853,1.107,1.681.893.225-.057.328-.071.422.065s-.071.25-.236.371c-.358.2-.69.442-1.05.647-.307.271-.641.507-.948.777-.167.12-.331.238-.425.1s-.051-.225.059-.407c.143-.24.051-.407-.274-.859l-1.909-2.664c-.059-.082-.175-.225-.2-.2s-.025.194.023.486l.773,4.582c.025.159.025.334-.075.407s-.2,0-.309-.043l-4.139-2.362c-.132-.082-.273-.157-.331-.114s-.043.08.071.238l1.565,2.194a1.324,1.324,0,0,0,1.536.675c.167-.043.3-.051.394.08s-.046.234-.128.295c-.291.2-.628.35-.92.556s-.533.482-.825.691c-.083.057-.175.125-.271,0s-.025-.246.053-.407a1.091,1.091,0,0,0-.122-1.316Z" transform="translate(5.986 3.157)" fill="#fff"/>
      <path id="Path_1685" data-name="Path 1685" d="M27.97,12.406a2.462,2.462,0,0,0,.815-3.334C28.25,7.8,26.606,6.067,25.1,6.7a2.462,2.462,0,0,0-.817,3.334c.541,1.282,2.185,3.018,3.693,2.379m-2.7-6.286A3.487,3.487,0,0,1,30.094,7.91a3.975,3.975,0,0,1-2.389,5.107,3.416,3.416,0,0,1-4.711-1.77,4,4,0,0,1,2.281-5.126" transform="translate(9.015 2.262)" fill="#fff"/>
      <path id="Path_1686" data-name="Path 1686" d="M30.582,6.79a2.209,2.209,0,0,0-.551-.305c-.051.011-.075.047-.026.287l.727,3.578a.952.952,0,0,0,.858.882c.266.029.593-.061.628.131s-.2.25-.375.287c-.352.069-.719.061-1.068.132s-.684.225-1.034.295c-.1.02-.2.043-.245-.118s.075-.234.2-.346a1.109,1.109,0,0,0,.45-1.259l-.771-3.778a1.292,1.292,0,0,0-.75-1c-.362-.094-.508-.1-.542-.257s.029-.173.1-.183c.3-.063.611-.083.91-.145s.593-.165.891-.23c.225-.043.3-.029.407.053l4.693,3.23a1.05,1.05,0,0,0,.395.2c.082-.016.061-.159.032-.3l-.454-2.275c-.129-.66-.292-1.26-.943-1.277-.273,0-.557-.023-.59-.183s.159-.2.338-.234c.35-.071.718-.061,1.068-.132s.686-.225,1.034-.3c.1-.02.2-.043.242.118s-.075.234-.2.344a1.1,1.1,0,0,0-.442,1.258l.982,4.827c.088.44.075.57-.046.593s-.422-.173-.725-.375Z" transform="translate(11.119 1.398)" fill="#fff"/>
      <path id="Path_1687" data-name="Path 1687" d="M35.3,4.3a.9.9,0,0,0-.442-.537c-.112-.075-.234-.086-.232-.251s.136-.163.269-.163c.407,0,.8.1,1.195.1s.8-.069,1.2-.059c.173,0,.265,0,.265.166s-.167.194-.322.242a.423.423,0,0,0-.336.462,5.227,5.227,0,0,0,.216.647l1.111,3.361c.028.094.059.185.088.185a.588.588,0,0,0,.126-.2L39.5,6.012l-.535-1.644a.863.863,0,0,0-.442-.539c-.112-.075-.234-.086-.23-.251s.134-.163.269-.163c.407,0,.8.1,1.193.1s.8-.069,1.2-.061c.175,0,.266,0,.265.169s-.166.191-.322.24a.407.407,0,0,0-.322.407,2.887,2.887,0,0,0,.2.7l1.054,3.093c.049.134.069.2.11.2.075,0,.139-.173.2-.366l.985-2.642a2.3,2.3,0,0,0,.173-.791c0-.45-.553-.407-.777-.553-.181-.114-.281-.2-.279-.291,0-.163.125-.161.225-.163.348,0,.692.094,1.04.1s.7-.069,1.044-.061c.091,0,.234,0,.232.169s-.216.159-.425.35c-.291.26-.334.423-.61,1.113l-2,4.925c-.225.537-.305.6-.407.6s-.2-.055-.34-.434L39.889,6.963c-.057-.175-.108-.279-.14-.279s-.083.1-.189.313L38.089,10.05c-.234.486-.305.545-.427.545s-.183-.065-.328-.484Z" transform="translate(13.714 1.327)" fill="#fff"/>
      <path id="Path_1688" data-name="Path 1688" d="M43.772,5.624c.1-.49.2-1.252-.2-1.387-.3-.1-.493-.238-.46-.407s.2-.126.407-.082a20.429,20.429,0,0,0,2.3.557c.77.159,1.557.24,2.325.407.23.047.431.089.389.291s-.13.429-.177.651-.051.45-.1.667c-.025.11-.071.185-.22.15s-.15-.22-.145-.309c.061-.645-.175-.967-1.345-1.209l-.65-.137c-.283-.055-.37.02-.45.407l-.362,1.75c-.032.159.126.246.525.328.58.12,1.056.043,1.3-.356.169-.256.216-.279.316-.259.15.032.122.173.091.313-.063.3-.167.59-.225.891s-.083.61-.145.91c-.031.14-.061.279-.248.24-.15-.031-.088-.332-.169-.556-.163-.462-.442-.584-1.018-.7-.48-.1-.6,0-.647.262l-.356,1.709c-.15.741-.047.877.485.989A2.725,2.725,0,0,0,47.1,10.5c.407-.26.578-.578.736-.545.12.025.14.122.122.225a3.242,3.242,0,0,1-.313.761,1.337,1.337,0,0,1-1.238.675c-.67-.14-1.323-.358-1.994-.5s-1.355-.2-2.035-.34c-.311-.065-.46-.1-.427-.257s.246-.189.45-.24c.362-.092.472-.319.59-.891Z" transform="translate(16.614 1.465)" fill="#fff"/>
      <path id="Path_1689" data-name="Path 1689" d="M49.713,8.85a1.177,1.177,0,0,0-.2.225c-.032.088.116.177.354.273l1.018.407c.305.12.425.15.442.11a1.593,1.593,0,0,0,0-.437L51.2,7.869c-.018-.15-.032-.23-.1-.257s-.2.15-.251.188ZM52.1,6.031c.225-.2.305-.265.391-.23.039.016.059.122.071.26l.309,6.105c.029.429-.02.938.3,1.184.225.179.356.265.295.407s-.155.114-.308.053c-.456-.183-.879-.439-1.3-.61s-.9-.273-1.359-.456c-.134-.051-.163-.142-.14-.2a.25.25,0,0,1,.331-.112.543.543,0,0,0,.611-.352,3.551,3.551,0,0,0,.051-1.367c-.075-.171-.242-.283-.7-.47L49.2,9.66c-.482-.194-1.132.659-1.295,1.068-.055.14.108.407.285.554.236.183.557.407.5.551s-.165.11-.317.049c-.322-.13-.61-.334-.938-.464s-.675-.179-1-.309c-.132-.055-.246-.1-.185-.25s.319-.114.491-.157a.938.938,0,0,0,.45-.214Z" transform="translate(18.31 2.293)" fill="#fff"/>
      <path id="Path_1690" data-name="Path 1690" d="M55.326,8.957a.727.727,0,0,0-.216-1.13.2.2,0,0,1-.065-.3A.177.177,0,0,1,55.3,7.47c.417.256.8.59,1.221.847s.885.45,1.221.653c.122.075.25.157.167.295s-.26.092-.365.065a.814.814,0,0,0-.891.45l-2.325,3.764c-.407.659-.354.8.092,1.076a2.733,2.733,0,0,0,2.063.494c.474-.1.745-.332.962-.2.122.075.1.281-.014.472a1.6,1.6,0,0,1-2.151.425c-.582-.362-1.73-1.166-2.312-1.529-.322-.2-.688-.328-1.018-.525-.2-.126-.366-.225-.283-.366s.238-.069.5-.075a1.018,1.018,0,0,0,.825-.6Z" transform="translate(20.452 2.943)" fill="#fff"/>
      <path id="Path_1691" data-name="Path 1691" d="M60.308,12.142c.234-.283.1-.5-.283-.814-.759-.625-1.15-.841-1.991-.225-.046.043-.114.026-.2-.047s-.1-.163-.065-.2.163-.167.246-.248l.741-.741c.132-.128.2-.137.387.01.814.664,1.55,1.382,2.354,2.035s1.669,1.27,2.46,1.923c.2.165.2.2,0,.493l-.589.873a1.425,1.425,0,0,1-.126.188c-.041.049-.145.017-.2-.039-.1-.075-.116-.136-.085-.189.45-.94.163-1.284-.6-1.909-.434-.358-.639-.38-.855-.12l-3.016,3.663c-.513.625.028,1.058.194,1.392.055.112.2.2.065.371-.1.126-.2.049-.293-.029-.466-.385-.891-.842-1.375-1.239s-1.018-.731-1.48-1.113c-.094-.075-.189-.154-.088-.283.145-.171.259-.039.375,0,.358.1.889.548,1.4-.075Z" transform="translate(21.967 3.873)" fill="#fff"/>
      <path id="Path_1692" data-name="Path 1692" d="M65.035,19.429c.23.274.375.323.557.171l1.087-.9a.741.741,0,0,0,.154-1.138.2.2,0,0,1,.051-.322c.126-.1.313.122.5.354.262.311.46.675.722.993s.581.578.845.887c.092.108.189.225.065.331s-.277,0-.365-.055a.842.842,0,0,0-.985.14l-3.537,2.941a.743.743,0,0,0-.15,1.142.216.216,0,0,1-.053.322c-.125.1-.313-.125-.5-.348-.262-.313-.46-.68-.722-1s-.586-.576-.847-.893c-.091-.11-.189-.23-.065-.331s.277,0,.364.055a.814.814,0,0,0,.983-.142l1.507-1.255c.251-.2.225-.279.032-.5l-1.6-1.923c-.11-.134-.273-.041-.38.053l-1.524,1.266a.742.742,0,0,0-.155,1.139.2.2,0,0,1-.051.322c-.125.1-.313-.125-.5-.35-.262-.316-.46-.68-.722-1s-.584-.576-.847-.891c-.092-.11-.191-.23-.065-.331s.279,0,.366.055a.814.814,0,0,0,.985-.142l3.525-2.934a.739.739,0,0,0,.157-1.138.216.216,0,0,1,.051-.323c.124-.1.317.122.5.352.26.314.462.682.722,1s.584.576.847.889c.091.11.189.225.065.334s-.279,0-.366-.057a.814.814,0,0,0-.985.145l-1.082.9c-.159.131-.171.289,0,.494Z" transform="translate(23.278 5.408)" fill="#fff"/>
      <path id="Path_1693" data-name="Path 1693" d="M69.093,22.675a.727.727,0,0,0,.464-1.054.2.2,0,0,1,.11-.283c.131-.057.2,0,.407.464.167.375.257.779.422,1.153s.407.714.57,1.09c.1.225.063.3-.031.338s-.2-.068-.35-.185a.9.9,0,0,0-.981-.1L66.8,25.378a1.941,1.941,0,0,0-1.05,2.707,2.26,2.26,0,0,0,3.29,1.039l2.387-1.05a.791.791,0,0,0,.47-1.111c-.061-.163-.055-.334.094-.407.112-.051.2.046.3.279.122.283.2.578.332.859s.287.545.407.825c.082.188.057.23-.053.279-.15.068-.236-.1-.375-.225-.23-.22-.431-.225-1.245.136l-1.992.877a3.064,3.064,0,0,1-4.536-1.813,2.509,2.509,0,0,1,1.3-3.809Z" transform="translate(25.48 8.442)" fill="#fff"/>
      <path id="Path_1694" data-name="Path 1694" d="M71.321,30.132a2.126,2.126,0,0,0,.295-.557c0-.049-.046-.075-.287-.02l-3.563.779a.953.953,0,0,0-.867.869c-.025.266.069.593-.122.635s-.252-.2-.291-.375c-.075-.35-.075-.716-.15-1.064s-.232-.682-.309-1.03c-.022-.1-.046-.2.114-.242s.238.071.35.2a1.107,1.107,0,0,0,1.266.434l3.76-.814c.38-.086.9-.354.993-.763.088-.365.088-.511.25-.545s.171.025.188.1c.065.3.089.61.155.907s.171.59.238.89c.047.22.032.295-.046.407l-3.154,4.737a1.018,1.018,0,0,0-.2.4c.017.075.159.059.3.028L72.5,34.61c.659-.145,1.258-.317,1.259-.967,0-.273.017-.557.175-.59s.2.15.242.331c.075.348.071.714.15,1.064s.234.682.309,1.033c.022.1.045.2-.114.245s-.234-.075-.346-.2a1.107,1.107,0,0,0-1.266-.425L68.1,36.149c-.439.1-.568.082-.594-.039s.169-.421.362-.727Z" transform="translate(26.143 10.943)" fill="#fff"/>
      <path id="Path_1695" data-name="Path 1695" d="M68.568,37.242a.853.853,0,0,0-.794.842.217.217,0,0,1-.232.232c-.163,0-.183-.285-.2-.582s.031-.728,0-1.136-.136-.814-.163-1.221c-.014-.2-.022-.348.138-.359s.225.159.265.257a.767.767,0,0,0,.879.407l4.584-.309a.739.739,0,0,0,.793-.83.2.2,0,0,1,.23-.23c.165-.014.183.285.2.58.029.407-.026.814,0,1.221s.138.814.167,1.221c0,.14.02.295-.145.307s-.23-.263-.269-.362c-.15-.391-.537-.385-.873-.362Z" transform="translate(26.598 13.585)" fill="#fff"/>
      <path id="Path_1696" data-name="Path 1696" d="M72.452,43.471a1.832,1.832,0,0,0,.611.248.478.478,0,0,0,.4-.1c.155-.15.2-.45.366-.7.091-.15.15-.216.257-.2.165.011.157.132.15.234-.025.35-.131.688-.155,1.038s.032.7.01,1.044c0,.092-.017.234-.179.225s-.15-.225-.328-.442a3.421,3.421,0,0,0-1.07-.7l-4.825-2.621c-.525-.283-.533-.407-.525-.519.01-.15.128-.22.474-.346l5.826-2.167a1.294,1.294,0,0,0,.73-.635c.091-.136.1-.248.26-.238s.157.114.15.257c-.031.46-.145.913-.177,1.372s.02.922-.012,1.38c0,.075-.018.256-.183.244s-.189-.177-.225-.344c-.051-.311-.25-.354-.484-.371a1.628,1.628,0,0,0-.594.15l-3.27,1.2c-.356.131-.45.163-.456.216s.075.118.252.2Z" transform="translate(26.593 14.884)" fill="#fff"/>
      <path id="Path_1697" data-name="Path 1697" d="M72.245,44.909c.486.118,1.243.248,1.394-.155.114-.3.257-.485.407-.45s.118.2.075.407a20.221,20.221,0,0,0-.639,2.275c-.185.763-.291,1.55-.478,2.314-.055.23-.1.428-.3.375s-.428-.145-.643-.2-.45-.065-.665-.118c-.11-.026-.181-.075-.145-.225s.225-.15.317-.134c.641.082.968-.145,1.252-1.3l.159-.643c.067-.279,0-.37-.393-.466l-1.744-.414c-.159-.039-.248.118-.344.515A1.144,1.144,0,0,0,70.809,48c.251.177.269.225.246.322-.034.15-.175.114-.313.079-.3-.071-.586-.183-.884-.257s-.61-.106-.9-.175c-.143-.032-.279-.065-.232-.256.032-.15.332-.075.56-.15.468-.15.6-.422.737-1,.118-.476,0-.6-.238-.657l-1.7-.407c-.737-.179-.873-.075-1,.45a2.722,2.722,0,0,0,.171,2.112c.246.419.562.6.525.761-.031.118-.128.134-.225.11a3.166,3.166,0,0,1-.75-.338,1.335,1.335,0,0,1-.629-1.261c.163-.664.407-1.31.564-1.974s.244-1.35.407-2.014c.075-.309.112-.456.271-.419s.181.257.225.454c.075.368.3.486.869.623Z" transform="translate(26.21 17.001)" fill="#fff"/>
      <path id="Path_1698" data-name="Path 1698" d="M69.419,51.258c-.112-.051-.328-.145-.59.456-.366.844-.122,1.359.814,1.769a1.335,1.335,0,0,0,1.855-.629c.216-.5.1-.647-.232-.793Zm2.155-.755a.771.771,0,0,0,1.087-.375.22.22,0,0,1,.309-.1c.094.043.134.1.035.33s-.283.45-.572,1.109c-.225.5-.45,1.233-.628,1.644-.543,1.256-1.345,2.452-2.89,1.783a1.384,1.384,0,0,1-.885-1.221c-.02-.232.04-.525-.055-.568a15.162,15.162,0,0,0-3.182.407c-.145.046-.234.1-.269.183s-.063.22-.1.307a.163.163,0,0,1-.234.075c-.407-.173.025-1.3.16-1.616a1.074,1.074,0,0,1,.911-.56l2.48-.225c.36-.035.659-.082.814-.429.108-.246.088-.33-.032-.38l-1.594-.7c-.771-.334-1.076-.089-1.275.293a.2.2,0,0,1-.309.1c-.122-.051-.1-.177.088-.61.163-.375.407-.714.565-1.09s.251-.784.407-1.158c.059-.131.12-.269.268-.2s.131.242.114.35a.814.814,0,0,0,.57.814Z" transform="translate(25.351 18.806)" fill="#fff"/>
      <path id="Path_1699" data-name="Path 1699" d="M65.635,53.187a1.832,1.832,0,0,1,.314.114c.061.039.106.12.014.265-.11.175-.37.069-.539.047a2.4,2.4,0,0,0-2.4.922,1.19,1.19,0,0,0,.295,1.732c1.4.9,2.775-2.727,5.122-1.221a2.035,2.035,0,0,1,.568,2.822c-.468.73-1.087.954-1.27,1.238-.061.1-.061.362-.11.437-.075.112-.14.1-.252.032a14.413,14.413,0,0,0-1.445-.761.2.2,0,0,1-.075-.293c.1-.15.259-.1.519-.031a2.182,2.182,0,0,0,2.212-.814,1.042,1.042,0,0,0-.16-1.489c-1.461-.938-2.737,2.751-5.112,1.221a2.275,2.275,0,0,1-.659-3.158,9.675,9.675,0,0,1,1.286-1.373c.071-.075.169-.2.311-.16Z" transform="translate(24.662 20.872)" fill="#fff"/>
      <path id="Path_1700" data-name="Path 1700" d="M61.42,58.245a.853.853,0,0,0-1.153.069.214.214,0,0,1-.328.011c-.126-.1.063-.334.251-.559s.525-.509.781-.825.456-.686.714-1c.125-.15.22-.269.346-.167s.055.271.016.366a.777.777,0,0,0,.359.9l3.557,2.916a.743.743,0,0,0,1.147-.063.2.2,0,0,1,.326,0c.126.1-.061.332-.248.557-.26.317-.582.582-.842.9s-.454.685-.714,1c-.091.11-.189.23-.313.124s0-.348.049-.445c.159-.387-.128-.647-.391-.865Z" transform="translate(23.721 22.071)" fill="#fff"/>
      <path id="Path_1701" data-name="Path 1701" d="M63.056,63.764c.25.273.484.165.842-.169.718-.67.985-1.018.485-1.941-.035-.053-.01-.118.075-.194s.175-.082.217-.037.143.188.2.275l.635.833c.11.15.11.225-.065.383-.765.706-1.575,1.35-2.338,2.061s-1.48,1.487-2.226,2.183c-.187.171-.23.171-.491-.063l-.782-.7a1.721,1.721,0,0,1-.169-.15c-.041-.046,0-.145.065-.2.091-.082.15-.1.2-.055.873.565,1.252.328,1.969-.34.407-.383.462-.584.234-.83l-3.225-3.473c-.551-.59-1.05-.11-1.4,0-.118.039-.225.181-.375.016-.11-.12-.02-.2.069-.285.442-.407.954-.776,1.412-1.2s.856-.91,1.3-1.321c.089-.082.181-.167.291-.047.15.167,0,.263-.043.375-.145.342-.659.814-.112,1.4Z" transform="translate(22.512 23.148)" fill="#fff"/>
      <path id="Path_1702" data-name="Path 1702" d="M55.877,68.58a.961.961,0,0,0,.145.5c.15.238.519.163.959.012a.225.225,0,0,1,.3.1c.089.136,0,.2-.108.262-.3.2-.643.322-.946.515s-.554.457-.855.653c-.1.061-.2.128-.287,0s-.018-.2.089-.352c.2-.279.216-.513.189-1.266l-.075-2.542a1.144,1.144,0,0,0-.1-.6l-.869-1.345c-.279-.429-.61-.653-1.09-.429-.216.1-.407.216-.511.04s.125-.334.366-.49c.385-.251.814-.434,1.221-.7.291-.185.633-.507,1.018-.757.238-.154.482-.309.6-.131s-.065.295-.244.45c-.407.35-.336.741-.059,1.168l.691,1.072a.485.485,0,0,0,.216.179L59.4,66.5c.635.342.948.371,1.2.257.217-.091.407-.163.49-.026s-.055.23-.2.33c-.385.252-.814.431-1.2.68s-.727.571-1.113.814c-.155.1-.3.2-.389.059s.15-.293.236-.45.112-.238.067-.309a1.28,1.28,0,0,0-.468-.366L56.3,66.549c-.283-.159-.407-.194-.454-.159a1.184,1.184,0,0,0-.041.464Z" transform="translate(20.873 24.549)" fill="#fff"/>
      <path id="Path_1703" data-name="Path 1703" d="M28.1,68.815a5.006,5.006,0,0,0-.61.043,1.2,1.2,0,0,0-.708.313c-.12.1-.269.246-.45.434l-.075-.029a4.884,4.884,0,0,0-.047-.62,1.466,1.466,0,0,0-.1-.375,1.386,1.386,0,0,0-.217-.33,4.868,4.868,0,0,0-.425-.442l.031-.073a5.256,5.256,0,0,0,.61-.045,1.364,1.364,0,0,0,.38-.1,1.552,1.552,0,0,0,.328-.217c.118-.1.266-.242.45-.429l.075.031a5.289,5.289,0,0,0,.043.61,1.4,1.4,0,0,0,.1.375,1.335,1.335,0,0,0,.2.328,5.25,5.25,0,0,0,.429.437Z" transform="translate(10.089 26.514)" fill="#fff"/>
      <path id="Path_1704" data-name="Path 1704" d="M32.263,67.861a.295.295,0,0,0-.277-.359,2.791,2.791,0,0,0-.5-.02c-.12-.022-.225-.065-.2-.234s.293-.173.419-.181a3.866,3.866,0,0,0,1.7-.319c.069-.039.177-.122.26-.106.131.026.163.075.131.234L32.729,72.46a.7.7,0,0,0,.407.869c.159.094.427.167.4.323-.025.12-.131.14-.382.1-.433-.085-.848-.244-1.275-.33s-.879-.085-1.312-.171c-.279-.055-.342-.116-.319-.225.031-.163.24-.163.5-.155a.665.665,0,0,0,.661-.519Z" transform="translate(11.974 26.391)" fill="#fff"/>
      <path id="Path_1705" data-name="Path 1705" d="M35.152,68.336c-.075,1.018,1.425,1.445,1.679,1.466.551.039.833-.456.867-.944a1.309,1.309,0,0,0-1.345-1.425,1.018,1.018,0,0,0-1.2.9m.375,2.6a.964.964,0,0,0-.242-.088c-.14,0-.519.407-.568,1.066a1.575,1.575,0,0,0,1.506,1.87c.519.039,1.386-.2,1.444-.993a.975.975,0,0,0-.59-1.1Zm3.1-2.208a1.247,1.247,0,0,1-1.05,1.21c-.094.032-.24.051-.242.1s.116.089.188.126a2.214,2.214,0,0,1,1.217,2.075c-.114,1.6-1.457,2.025-2.82,1.927-1.182-.088-2.263-.737-2.165-2.09a1.512,1.512,0,0,1,1.054-1.4c.085-.039.2-.046.2-.069s-.083-.088-.163-.155a1.86,1.86,0,0,1-.643-1.616,2.071,2.071,0,0,1,2.411-1.791c.9.061,2.1.58,2.021,1.679" transform="translate(13.362 26.529)" fill="#fff"/>
      <path id="Path_1706" data-name="Path 1706" d="M39.735,67.812c-.675.043-.814.594-1.046.611-.069,0-.175-.029-.181-.112-.022-.346.905-1.195,1.895-1.258a1.367,1.367,0,0,1,1.575,1.138,1.915,1.915,0,0,1-.944,1.514.157.157,0,0,0-.055.108c0,.028.025.049.1.055a1.457,1.457,0,0,1,1.544,1.546,2.625,2.625,0,0,1-2.5,2.822c-.847.055-1.848-.407-1.87-.718a.177.177,0,0,1,.163-.2c.274-.017.482.5,1.4.439a1.567,1.567,0,0,0,1.408-1.831c-.043-.641-.375-1.233-1.089-1.184-.132,0-.305.069-.436.075s-.181-.059-.187-.194c-.01-.173.236-.271.356-.348a1.72,1.72,0,0,0,.814-1.528.887.887,0,0,0-.952-.942" transform="translate(15.148 26.543)" fill="#fff"/>
      <path id="Path_1707" data-name="Path 1707" d="M44.1,70.607a1,1,0,0,0-.254-.025c-.143.028-.407.525-.269,1.181a1.575,1.575,0,0,0,1.946,1.408c.511-.1,1.282-.568,1.132-1.337a.975.975,0,0,0-.857-.908ZM43.049,68.2c.207,1,1.754,1.017,2.007.967a.881.881,0,0,0,.59-1.138,1.31,1.31,0,0,0-1.671-1.018,1.018,1.018,0,0,0-.922,1.182m3.459-.537a1.241,1.241,0,0,1-.7,1.438c-.082.059-.216.114-.2.165s.137.055.2.075a2.239,2.239,0,0,1,1.715,1.682c.309,1.575-.873,2.34-2.216,2.6a2.017,2.017,0,0,1-2.645-1.447,1.518,1.518,0,0,1,.65-1.628c.075-.057.179-.1.175-.118a.724.724,0,0,0-.2-.108,1.864,1.864,0,0,1-1.044-1.39A2.072,2.072,0,0,1,44.1,66.563c.883-.175,2.175,0,2.393,1.09" transform="translate(16.726 26.335)" fill="#fff"/>
      <path id="Path_1708" data-name="Path 1708" d="M51.683,67.528a4.565,4.565,0,0,0-.407.45,1.555,1.555,0,0,0-.2.336,1.384,1.384,0,0,0-.092.38,5.665,5.665,0,0,0-.031.611l-.092.026a5.277,5.277,0,0,0-.457-.421,1.336,1.336,0,0,0-.328-.2,1.483,1.483,0,0,0-.385-.094,5.909,5.909,0,0,0-.611-.031l-.028-.075a4.653,4.653,0,0,0,.419-.45,1.392,1.392,0,0,0,.2-.331,1.425,1.425,0,0,0,.09-.373,5.267,5.267,0,0,0,.035-.611l.075-.031a5.93,5.93,0,0,0,.456.423,1.4,1.4,0,0,0,.331.2,1.366,1.366,0,0,0,.38.1,6.016,6.016,0,0,0,.611.025Z" transform="translate(19.426 26.42)" fill="#fff"/>
      <path id="Path_1709" data-name="Path 1709" d="M87.1,48.772a38.33,38.33,0,1,1-38.33-38.33A38.33,38.33,0,0,1,87.1,48.772" transform="translate(4.137 4.135)" fill="#ffb300"/>
    </g>
  </g>
  <g id="Group_2216" data-name="Group 2216" transform="translate(14.578 14.578)">
    <g id="Group_2215" data-name="Group 2215" clip-path="url(#clip-path-2)">
      <path id="Path_1710" data-name="Path 1710" d="M32.231,35.994l-.257,23.788a.3.3,0,0,0,.118.274,5.614,5.614,0,0,0,2.511.3,5.71,5.71,0,0,0,2.511-.309.336.336,0,0,0,.129-.263l-.2-23.808a4.141,4.141,0,0,0-2.391-.479,4.009,4.009,0,0,0-2.417.5" transform="translate(-1.915 -0.538)" fill="#1a1818"/>
      <path id="Path_1711" data-name="Path 1711" d="M34.906,30.447c-2.925,0-3.618.968-3.618.968l-.025.23a1.113,1.113,0,0,1,.83.645,18.689,18.689,0,0,1,.437,3.781v.2a5.025,5.025,0,0,1,2.4-.429,5.1,5.1,0,0,1,2.373.407v-.265a11.47,11.47,0,0,1,.46-3.712,1.221,1.221,0,0,1,.761-.7l.022-.3s-.716-.83-3.643-.83" transform="translate(-2.197 -2.521)" fill="#1a1818"/>
      <path id="Path_1712" data-name="Path 1712" d="M40.158,35.974l-.2,23.808a.344.344,0,0,0,.122.266,5.775,5.775,0,0,0,2.517.309,5.637,5.637,0,0,0,2.513-.3.308.308,0,0,0,.114-.274L44.967,36a4.019,4.019,0,0,0-2.42-.5,4.129,4.129,0,0,0-2.391.479" transform="translate(1.246 -0.537)" fill="#1a1818"/>
      <path id="Path_1713" data-name="Path 1713" d="M46.48,31.413s-.69-.968-3.618-.968-3.643.83-3.643.83l.025.3a1.221,1.221,0,0,1,.763.716A11.405,11.405,0,0,1,40.464,36v.265a5.12,5.12,0,0,1,2.379-.419,5.03,5.03,0,0,1,2.4.429v-.2a18.562,18.562,0,0,1,.437-3.781,1.107,1.107,0,0,1,.825-.645Z" transform="translate(0.954 -2.522)" fill="#1a1818"/>
      <path id="Path_1714" data-name="Path 1714" d="M58.242,60.9h-5.58c-.183,0-.167-.2-.167-.2l-.833-27.613s.039-.15.159-.15H55.6c.1,0,.145.128.145.128l2.7,27.6s.028.24-.2.24M56.614,32.087a.163.163,0,0,0-.165-.154h-5.4c-.138,0-.159.155-.159.155l.793,29.8s-.028.225.189.225h7.623a.217.217,0,0,0,.225-.225Z" transform="translate(5.574 -1.932)" fill="#1a1818"/>
      <path id="Path_1715" data-name="Path 1715" d="M25.811,60.7s.014.2-.169.2H20.06c-.23,0-.2-.238-.2-.238l2.708-27.6s.041-.126.145-.126h3.769c.122,0,.159.15.159.15Zm.814,1.187.794-29.8s-.02-.157-.157-.157H21.849a.165.165,0,0,0-.165.157l-3.1,29.8a.216.216,0,0,0,.225.225h7.624c.216,0,.189-.225.189-.225" transform="translate(-7.218 -1.933)" fill="#1a1818"/>
      <path id="Path_1716" data-name="Path 1716" d="M74.555,31.843a3.5,3.5,0,0,0-.982.884,2.414,2.414,0,0,0-.313,1.07H63.544a2.543,2.543,0,0,0-.225-1.056,2.8,2.8,0,0,0-.83-.9v-.3a.225.225,0,0,1,.2-.171h2.2a4.967,4.967,0,0,0,7.35,0h2.146c.122,0,.16.154.16.154ZM59.279,29.934H35.918V28.622h23.36ZM41.058,24.341a9.961,9.961,0,0,0,2.442.407c1.5-.039,1.941-.422,2.336-.092.265.22.032.625.025.987a.61.61,0,0,0,.657.627.6.6,0,0,0,.46-.24.842.842,0,1,1,1.06,0,.593.593,0,0,0,.46.24.611.611,0,0,0,.659-.627c0-.362-.24-.767.026-.987.393-.332.839.053,2.336.091a9.912,9.912,0,0,0,2.442-.407c.055.039-.407,1.664-2.85,2.275a16.456,16.456,0,0,1-3.6.46h0a16.483,16.483,0,0,1-3.6-.46c-2.442-.611-2.905-2.239-2.85-2.275m-8.371,7.5a2.8,2.8,0,0,0-.829.9,2.544,2.544,0,0,0-.225,1.056h-9.7a2.414,2.414,0,0,0-.313-1.07,3.48,3.48,0,0,0-.983-.884v-.309s.039-.155.161-.155h2.153a4.112,4.112,0,0,0,3.663,1.628,4.115,4.115,0,0,0,3.675-1.628h2.2a.22.22,0,0,1,.2.171Zm43.6-3.256-17.018.025.163-1.19L75.752,27.4s.047-.75.047-.932a2.971,2.971,0,0,1,.531-1.657l2.077-2.645v-.793a.12.12,0,0,0-.131-.136H58.6c-.112,0-.143.057-.143.118V22.9H36.729V21.351c0-.059-.031-.118-.142-.118H16.9a.12.12,0,0,0-.131.137v.785L18.847,24.8a2.971,2.971,0,0,1,.529,1.66c0,.185.047.932.047.932l16.33.022.165,1.19-17.025-.025L13.417,69.1h4.65l3.84-34.4h9.587l-.45,34.4h3.788L35.9,67.476V32.586H59.267V67.474L60.342,69.1h3.787l-.45-34.4h9.593l3.838,34.4h4.656Z" transform="translate(-9.265 -6.171)" fill="#1a1818"/>
    </g>
  </g>
  <g id="Group_2218" data-name="Group 2218">
    <g id="Group_2217" data-name="Group 2217" clip-path="url(#clip-path)">
      <path id="Path_1718" data-name="Path 1718" d="M31.509,19.764c-.055,1.6.975,1.056.975,1.438,0,.039.039.15-.225.15-.336,0-.533-.039-.962-.039s-.787.039-.926.039-.179-.075-.179-.13c0-.336.767-.1.814-1.082l.131-3.758c.055-1.544-.944-1.1-.944-1.518a.13.13,0,0,1,.112-.13c.122,0,.26.039.562.039.216,0,.56-.039.869-.039.1,0,.2,0,.328.273l2.057,4.477c.039.088.065.15.122.15s.14-.171.15-.2L36.562,14.9a.225.225,0,0,1,.234-.187c.225,0,.407.039.542.039s.346-.039.611-.039.271.039.271.112c0,.336-.918-.029-.879,1.05l.159,4.141c.046,1.221.907.814.907,1.16,0,.159-.122.159-.45.159-.273,0-.533-.039-.814-.039-.611,0-.83.039-1.046.039s-.429.026-.429-.14c0-.317.727,0,.675-1.046L36.2,17.318c-.011-.281-.02-.422-.075-.422s-.15.188-.293.494l-1.766,3.693c-.055.122-.092.263-.242.263s-.187-.161-.234-.263l-1.817-4.028c-.028-.057-.065-.159-.1-.159-.068,0-.068.167-.068.234Z" transform="translate(11.961 5.826)" fill="#1a1818"/>
      <path id="Path_1719" data-name="Path 1719" d="M42.06,16.761c0,.1.047.309-.114.309s-.2-.2-.279-.317a2.825,2.825,0,0,0-2.373-1.712,2.342,2.342,0,0,0-2.132,2.564c0,1.318.75,3.17,2.536,3.17,1.447,0,2.083-1.221,2.325-1.221.047,0,.131.046.131.1a2.984,2.984,0,0,1-2.979,1.787,3.052,3.052,0,0,1-3.161-3.132,3.4,3.4,0,0,1,3.317-3.634,6.88,6.88,0,0,1,2.134.57c.175,0,.185-.308.317-.308.047,0,.112,0,.112.055Z" transform="translate(14.258 5.816)" fill="#1a1818"/>
      <path id="Path_1720" data-name="Path 1720" d="M44.419,21.2c-.1.242-.15.3-.25.3s-.189-.1-.359-.486l-2.325-5.439a.793.793,0,0,0-.675-.562c-.028,0-.15-.065-.15-.13,0-.225.291-.15.429-.15.309,0,.625.039.944.039.6,0,.869-.039,1.018-.039.3,0,.346,0,.346.15,0,.25-.562.112-.562.5a3.941,3.941,0,0,0,.354,1.29L44.41,19.69c.028.065.075.2.131.2s.091-.13.124-.2l1.28-2.85a2.664,2.664,0,0,0,.3-1.1c0-.881-.944-.531-.944-.861,0-.179.271-.15.385-.15.271,0,.533.039.8.039s.525-.039.787-.039c.2,0,.328-.029.328.128,0,.218-.385.171-.635.725Z" transform="translate(16.105 5.83)" fill="#1a1818"/>
      <path id="Path_1721" data-name="Path 1721" d="M34.562,59.735c0,.242.358.242.649.242,1.469,0,1.528-.542,1.528-1.115A1.5,1.5,0,0,0,35.222,57.2c-.36,0-.659,0-.659.58ZM33.372,58c0-1.082-1.05-.722-1.05-1.075,0-.1.1-.145.2-.145.445,0,.525.041,1.132.041.647,0,1.3-.041,1.95-.041,2.117,0,2.309,1.367,2.309,1.809a1.478,1.478,0,0,1-.559,1.209c-.281.225-.562.309-.562.407,0,.061.814,1.463,1.518,2.684a.375.375,0,0,0,.348.15c.1,0,.194-.057.291-.057a.132.132,0,0,1,.145.134c0,.3-.637.513-1.018.513-.763,0-1.075-.611-1.375-1.172L35.89,60.93a.785.785,0,0,0-.881-.513c-.511,0-.454.068-.454.407V62.5c0,1.034.958.639.958.987,0,.088-.075.145-.3.145-.167,0-.425-.039-.833-.039-.525,0-1.007.039-1.492.039-.1,0-.309.029-.309-.163,0-.313.782,0,.782-1.211Z" transform="translate(12.798 22.488)" fill="#1a1818"/>
      <path id="Path_1722" data-name="Path 1722" d="M39.385,62.312c0,1.207.975.838.975,1.178,0,.165-.1.145-.232.145-.675,0-1.1-.039-1.315-.039-.389,0-1.133.039-1.19.039s-.2.02-.2-.145c0-.28.775-.065.775-1.275v-4.26c0-1.018-1.007-.628-1.007-.989,0-.055.039-.183.271-.183.065,0,.6.041,1.333.041.136,0,.814-.031,1.51-.041,1.237-.016,2.442.464,2.442,1.875A1.9,1.9,0,0,1,40.692,60.6c-.95,0-1-.24-1-.279s.018-.183.136-.183a4.056,4.056,0,0,0,.454.055,1.258,1.258,0,0,0,1.266-1.345,1.543,1.543,0,0,0-1.575-1.66c-.434,0-.59.193-.59.629Z" transform="translate(14.728 22.488)" fill="#1a1818"/>
      <path id="Path_1723" data-name="Path 1723" d="M43.933,62.431c0,1.19,1.084.743,1.084,1.054,0,.106-.088.145-.309.145-.36,0-.718-.039-1.472-.039-.417,0-.832.039-1.082.039a.106.106,0,0,1-.11-.118c0-.34.7-.083.7-1V57.865c0-.879-1.09-.61-1.09-.946,0-.165.242-.137.328-.137.375,0,.75.041,1.093.041s.7-.041,1.247-.041c.291,0,.34.02.34.137,0,.328-.727-.018-.727.9Z" transform="translate(16.495 22.487)" fill="#1a1818"/>
      <path id="Path_1724" data-name="Path 1724" d="M47.138,16.778l9.059.48-9.059.482s-1.522.012-1.522-.482,1.522-.48,1.522-.48" transform="translate(18.066 6.644)" fill="#1a1818"/>
      <path id="Path_1725" data-name="Path 1725" d="M31.3,17.741l-9.059-.482,9.059-.482s1.522-.012,1.522.482-1.522.482-1.522.482" transform="translate(8.806 6.643)" fill="#1a1818"/>
      <path id="Path_1726" data-name="Path 1726" d="M45.934,58.89l9.059.482-9.059.482s-1.524.014-1.524-.482,1.524-.482,1.524-.482" transform="translate(17.587 23.322)" fill="#1a1818"/>
      <path id="Path_1727" data-name="Path 1727" d="M33.1,59.852l-9.059-.482,9.059-.48s1.522-.01,1.522.48-1.522.482-1.522.482" transform="translate(9.521 23.322)" fill="#1a1818"/>
    </g>
  </g>
</svg>
